HIERARCHY
ROOT Hips
{
	OFFSET	0.00	0.00	0.00
	CHANNELS 6 Xposition Yposition Zposition Zrotation Xrotation Yrotation
	JOINT Spine
	{
		OFFSET	 0.00	0.01	 0.00
		CHANNELS 3 Zrotation Xrotation Yrotation
		JOINT Spine1
		{
			OFFSET	 0.00	 2.45913012437421	 0.00
			CHANNELS 3 Zrotation Xrotation Yrotation
            JOINT Neck
            {
                OFFSET	 0.00	 2.48462964506057	 0.00
                CHANNELS 3 Zrotation Xrotation Yrotation
                JOINT Head
                {
                    OFFSET	 0.00	 0.927524780924562	 0.00
                    CHANNELS 3 Zrotation Xrotation Yrotation
                    End Site 
                    {
                        OFFSET	 0.00	 1.14999962169752	 0.00
                    }
                }
            }
			JOINT LeftShoulder
			{
				OFFSET	 0.00	 2.48462964506057	 0.00
				CHANNELS 3 Zrotation Xrotation Yrotation
				JOINT LeftUpArm
				{
					OFFSET	 0.00	 1.24881979654096	 0.00
					CHANNELS 3 Zrotation Xrotation Yrotation
					JOINT LeftForeArm
					{
						OFFSET	 0.00	2.59758046908119	 0.00
						CHANNELS 3 Zrotation Xrotation Yrotation
						JOINT LeftHand
						{
							OFFSET	 0.00	2.45542024364365	 0.00
							CHANNELS 3 Zrotation Xrotation Yrotation
							JOINT LeftHandThumb 
							{
								OFFSET	 0.00	0.00	 0.00
								CHANNELS 3 Zrotation Xrotation Yrotation
								End Site
								{
									OFFSET	 0.00	0.00	1.00000003353624
								}
							}
							JOINT L_Wrist_End 
							{
								OFFSET	 0.00	0.99999967115358	 0.00
								CHANNELS 3 Zrotation Xrotation Yrotation
								End Site 
								{
									OFFSET	 0.00	 0.00	 0.00
								}
							}
						}
					}
				}
			}
			JOINT RightShoulder
			{
				OFFSET	 0.00	 2.48462964506057	 0.00
				CHANNELS 3 Zrotation Xrotation Yrotation
				JOINT RightUpArm
				{
					OFFSET	 0.00	 1.24881979654096	 0.00
					CHANNELS 3 Zrotation Xrotation Yrotation
					JOINT RightForeArm
					{
						OFFSET	 0.00	2.59758046908119	 0.00
						CHANNELS 3 Zrotation Xrotation Yrotation
						JOINT RightHand
						{
							OFFSET	 0.00	2.45542024364365	 0.00
							CHANNELS 3 Zrotation Xrotation Yrotation
							JOINT RightHandThumb 
							{
								OFFSET	 0.00	0.00	 0.00
								CHANNELS 3 Zrotation Xrotation Yrotation
								End Site
								{
									OFFSET	 0.00	0.00	1.00000003353624
								}
							}
							JOINT R_Wrist_End 
							{
								OFFSET	 0.00	0.99999967115358	 0.00
								CHANNELS 3 Zrotation Xrotation Yrotation
								End Site 
								{
									OFFSET	 0.00	 0.00	 0.00
								}
							}
						}
					}
				}
			}
		}
	}
	JOINT LeftUpLeg
	{
		OFFSET	 1.2719394002717	 0.00	 0.00
		CHANNELS 3 Zrotation Xrotation Yrotation
		JOINT LeftLowLeg
		{
			OFFSET	 0.00	-4.3429100912261	 0.00
			CHANNELS 3 Zrotation Xrotation Yrotation
			JOINT LeftFoot
			{
				OFFSET	 0.00	-4.48767017425826	 0.00
				CHANNELS 3 Zrotation Xrotation Yrotation
				JOINT LeftToeBase
                {
                    OFFSET	 0.00	0.00	 1.51507020887566
                    CHANNELS 3 Zrotation Xrotation Yrotation
                    End Site 
                    {
                        OFFSET	 0.00	0.00	 0.75000010571191
                    }
                }
			}
		}
	}
	JOINT RightUpLeg
	{
		OFFSET	 -1.2719393604653	 0.00	 0.00
		CHANNELS 3 Zrotation Xrotation Yrotation
		JOINT RightLowLeg
		{
			OFFSET	 0.00	-4.3429100912261	 0.00
			CHANNELS 3 Zrotation Xrotation Yrotation
			JOINT RightFoot
			{
				OFFSET	 0.00	-4.48767017425826	 0.00
				CHANNELS 3 Zrotation Xrotation Yrotation
				JOINT RightToeBase
                {
                    OFFSET	 0.00	0.00	 1.51507020887566
                    CHANNELS 3 Zrotation Xrotation Yrotation
                    End Site 
                    {
                        OFFSET	 0.00	0.00	 0.749999965609858
                    }
                }   
			}
		}
	}
}
MOTION 
Frames:	15 
Frame Time: 0.02 
  -3.5982699584960938 4.631069946289062 10.139000244140625 -105.097 82.4652 97.4449 -5.76574 -11.1693 3.70367 18.7159 23.334 -4.38044 -37.2712 77.4608 55.9255 4.01603 -57.3672 -19.3762 -104.7543 -6.19269 -19.1907 11.3766 7.39052 -24.5108 0.0 22.4635 0.0 52.9213 16.6628 33.5956 0.0 0.0 0.0 0.0 0.0 0.0 114.2146 -2.65263 -4.59127 35.2033 -0.130276 -8.68483 0.0 26.2444 0.0 -4.92427 -0.607234 0.815375 0.0 0.0 0.0 0.0 0.0 0.0 -3.16674 -12.2232 22.3851 0.0 19.1221 0.0 7.7951 4.1540003 14.7887 0.0 -11.30954 0.0 22.6916 0.124693 10.5233 0.0 7.24509 0.0 11.6701 11.710011 -21.574 0.0 -20.4766 0.0 
  -3.596659851074219 4.636419982910156 10.1427001953125 -106.022 82.3477 98.2692 -5.81068 -11.2378 3.57933 18.8551 23.2855 -4.43834 -36.3349 78.3331 54.7594 4.77821 -57.137 -18.0899 -104.7364 -6.48605 -19.8457 11.2431 7.19064 -23.8183 0.0 22.4456 0.0 53.4727 17.4699 33.0716 0.0 0.0 0.0 0.0 0.0 0.0 114.2247 -2.82534 -4.51755 35.5202 -0.0708295 -8.46207 0.0 26.1672 0.0 -6.53433 -0.483945 -0.797105 0.0 0.0 0.0 0.0 0.0 0.0 -3.16694 -12.2111 22.3041 0.0 18.7206 0.0 7.92417 4.3153 14.9204 0.0 -10.9604 0.0 22.6986 0.210828 10.808 0.0 6.77306 0.0 11.9928 11.94213 -21.4852 0.0 -19.54913 0.0 
  -3.595150146484375 4.642059936523437 10.145399780273438 -106.85 82.2549 99.0104 -5.91565 -11.439 3.44308 19.1283 23.4474 -4.56978 -35.5513 78.7654 53.9521 5.74171 -56.7912 -17.1942 -104.8989 -6.55947 -19.284 11.5015 6.68907 -24.5848 0.0 22.3226 0.0 53.7577 18.047 32.644 0.0 0.0 0.0 0.0 0.0 0.0 114.0214 -2.83061 -4.42668 35.9054 0.0424294 -8.26863 0.0 26.0243 0.0 -7.31923 -0.482311 -2.8526 0.0 0.0 0.0 0.0 0.0 0.0 -3.20146 -12.1471 22.3906 0.0 18.192 0.0 7.96869 4.4522 15.0619 0.0 -10.927589 0.0 22.7177 0.293201 11.0958 0.0 6.34119 0.0 12.1536 12.15456 -21.6389 0.0 -19.051361 0.0 
  -3.5929598999023438 4.648900146484375 10.1477001953125 -107.601 82.1795 99.6407 -5.92238 -11.4362 3.34175 19.1484 23.3677 -4.63923 -35.2102 79.3759 53.5115 6.4933 -56.7217 -16.2913 -104.9435 -6.82994 -19.482 11.4422 6.43397 -24.8005 0.0 22.3947 0.0 53.9856 18.245 32.5134 0.0 0.0 0.0 0.0 0.0 0.0 114.1521 -2.86053 -4.41921 35.8013 0.318931 -8.70208 0.0 25.8296 0.0 -7.81429 -0.162375 -3.64547 0.0 0.0 0.0 0.0 0.0 0.0 -3.22275 -12.0917 22.4013 0.0 17.7684 0.0 8.02444 4.5536003 15.1207 0.0 -10.92984 0.0 22.7131 0.358843 11.2495 0.0 5.96146 0.0 12.213 12.37999 -21.6224 0.0 -18.81097 0.0 
  -3.589330139160156 4.656340026855469 10.149500122070313 -108.247 82.1063 100.137 -5.92556 -11.4555 3.2696 19.2907 23.3098 -4.64016 -35.1578 79.8793 53.3581 7.05853 -56.7427 -15.7494 -105.0875 -6.85839 -19.3662 11.4785 6.15152 -25.1029 0.0 22.3052 0.0 54.501 17.9532 32.1987 0.0 0.0 0.0 0.0 0.0 0.0 114.1351 -2.86027 -4.39485 35.6324 0.536113 -9.26908 0.0 25.776 0.0 -7.32228 -0.507587 -4.36726 0.0 0.0 0.0 0.0 0.0 0.0 -3.20292 -12.0824 22.5298 0.0 17.493 0.0 8.10022 4.6187 15.0957 0.0 -11.02459 0.0 22.7112 0.39914 11.5066 0.0 5.66645 0.0 12.3079 12.55192 -21.67 0.0 -18.68732 0.0 
  -3.5831698608398437 4.664509887695313 10.150599975585937 -108.846 82.0345 100.613 -5.83149 -11.5107 3.27366 19.4117 23.3771 -4.68932 -33.7537 80.1688 51.7715 7.16692 -56.5568 -15.4679 -105.0793 -6.83351 -19.3958 11.2224 5.85478 -25.5076 0.0 22.2164 0.0 54.6884 17.9141 31.9817 0.0 0.0 0.0 0.0 0.0 0.0 114.0927 -2.81583 -4.30831 35.3964 0.74498 -9.78654 0.0 25.8596 0.0 -6.36451 -0.645579 -4.93332 0.0 0.0 0.0 0.0 0.0 0.0 -3.19892 -12.1013 22.6616 0.0 17.2504 0.0 8.15041 4.6716995 15.0915 0.0 -11.1751995 0.0 22.7038 0.39662 11.7808 0.0 5.46254 0.0 12.5417 12.61179 -21.7318 0.0 -18.81392 0.0 
  -3.5745700073242186 4.673739929199218 10.150900268554688 -109.03 81.9529 100.675 -5.65384 -11.533 3.30687 19.5002 23.406 -4.73394 -34.6808 80.0154 52.9219 7.82808 -56.3882 -15.4996 -105.4137 -6.87985 -18.4166 11.4909 5.78503 -26.6728 0.0 21.8547 0.0 54.7552 17.5542 31.5852 0.0 0.0 0.0 0.0 0.0 0.0 114.011 -2.61087 -4.38367 35.1222 0.912189 -10.1439 0.0 25.9456 0.0 -5.15591 -0.828891 -4.94642 0.0 0.0 0.0 0.0 0.0 0.0 -3.17966 -12.1192 22.7319 0.0 17.0918 0.0 8.20633 4.7222004 15.1496 0.0 -11.44899 0.0 22.7196 0.372903 11.9915 0.0 5.37626 0.0 12.6793 12.63077 -21.7822 0.0 -18.88702 0.0 
  -3.5628900146484375 4.682959899902344 10.151400146484375 -108.928 81.8621 100.473 -5.39413 -11.5153 3.37885 19.6539 23.5061 -4.79056 -34.358 79.9402 52.5549 7.69498 -56.4395 -15.7149 -105.473 -6.81912 -18.4305 11.1315 5.67689 -26.9348 0.0 21.6957 0.0 54.5311 17.2978 31.2777 0.0 0.0 0.0 0.0 0.0 0.0 113.95 -2.45999 -4.39707 34.6765 1.08347 -10.6357 0.0 26.2203 0.0 -4.18156 -1.12104 -4.3602 0.0 0.0 0.0 0.0 0.0 0.0 -3.17818 -12.0925 22.7254 0.0 16.9065 0.0 8.26683 4.7948 15.2391 0.0 -11.61181 0.0 22.7401 0.333113 11.9931 0.0 5.38187 0.0 12.7679 12.650909 -21.671 0.0 -18.8351 0.0 
  -3.5497000122070315 4.689859924316406 10.152000122070312 -108.459 81.7931 100.001 -5.09425 -11.5149 3.46237 19.8058 23.6872 -4.91057 -33.3357 79.804 51.4299 7.34481 -56.3988 -15.9936 -105.4785 -6.74086 -18.4283 10.6634 5.6164 -27.2869 0.0 21.538 0.0 54.1886 17.5556 31.4462 0.0 0.0 0.0 0.0 0.0 0.0 113.9238 -2.24939 -4.37607 34.1587 1.15386 -10.9913 0.0 26.6511 0.0 -3.37753 -1.01562 -3.96897 0.0 0.0 0.0 0.0 0.0 0.0 -3.19821 -12.0303 22.6291 0.0 16.7761 0.0 8.30073 4.8858004 15.2985 0.0 -11.86171 0.0 22.752 0.330459 11.9522 0.0 5.38997 0.0 12.7809 12.66914 -21.6427 0.0 -18.6963 0.0 
  -3.535150146484375 4.696499938964844 10.153099975585938 -107.737 81.7185 99.3275 -4.77419 -11.5019 3.55452 20.0165 23.9646 -5.06966 -31.1975 79.6836 49.0264 6.61333 -56.5032 -16.2553 -105.5999 -6.68127 -18.3736 10.3626 5.72323 -27.2439 0.0 21.2247 0.0 54.3681 17.305 31.1019 0.0 0.0 0.0 0.0 0.0 0.0 113.865295 -2.14742 -4.24049 33.6363 1.37071 -11.3652 0.0 27.0618 0.0 -2.90054 -1.09058 -3.69736 0.0 0.0 0.0 0.0 0.0 0.0 -3.20008 -11.9676 22.5306 0.0 16.7145 0.0 8.29825 4.9628 15.3176 0.0 -12.23875 0.0 22.7659 0.350976 11.9185 0.0 5.38286 0.0 12.8223 12.69973 -21.6728 0.0 -18.36813 0.0 
  -3.520169982910156 4.702760009765625 10.154400024414063 -107.168 81.6243 98.8458 -4.47798 -11.475 3.53242 20.2487 24.0221 -5.20996 -32.1314 79.3604 50.1274 6.7197 -56.6093 -16.6459 -105.7053 -6.54005 -18.2703 10.086 5.67066 -27.0461 0.0 20.9507 0.0 54.3953 17.4619 31.0163 0.0 0.0 0.0 0.0 0.0 0.0 113.794205 -1.91546 -4.35197 33.0886 1.58501 -11.486 0.0 27.3622 0.0 -2.71967 -0.891179 -3.18802 0.0 0.0 0.0 0.0 0.0 0.0 -3.1867 -11.9156 22.4995 0.0 16.6328 0.0 8.31323 5.03516 15.2426 0.0 -12.78894 0.0 22.795 0.369512 12.0422 0.0 5.30428 0.0 12.8236 12.75918 -21.8844 0.0 -17.815979 0.0 
  -3.5051998901367187 4.707409973144531 10.1552001953125 -106.671 81.5199 98.4661 -4.19494 -11.4606 3.49402 20.4982 24.0747 -5.35477 -31.0149 79.2655 48.8752 6.35713 -56.6575 -16.8336 -105.7885 -6.46541 -18.2786 9.78811 5.70546 -26.784 0.0 20.7575 0.0 54.4274 17.5406 30.8235 0.0 0.0 0.0 0.0 0.0 0.0 113.7223 -1.78693 -4.34307 32.5501 1.85629 -11.748 0.0 27.701 0.0 -3.02487 -0.939042 -3.01705 0.0 0.0 0.0 0.0 0.0 0.0 -3.16071 -11.8426 22.6096 0.0 16.5205 0.0 8.37161 5.06036 15.0361 0.0 -13.49069 0.0 22.8153 0.422814 12.1091 0.0 5.16258 0.0 12.8891 12.80644 -22.0101 0.0 -17.30247 0.0 
  -3.489739990234375 4.710320129394531 10.156699829101562 -106.378 81.4273 98.3495 -3.94301 -11.4926 3.40843 20.722 24.0731 -5.52155 -30.7778 79.0922 48.699 6.51759 -56.6565 -16.8636 -105.8693 -6.33316 -18.1225 9.58499 5.61536 -26.6845 0.0 20.7356 0.0 54.3117 17.5635 30.6506 0.0 0.0 0.0 0.0 0.0 0.0 113.656296 -1.69871 -4.36448 32.0207 2.21666 -11.939 0.0 27.9965 0.0 -3.44105 -0.965246 -2.7732 0.0 0.0 0.0 0.0 0.0 0.0 -3.19527 -11.7359 22.6461 0.0 16.2845 0.0 8.40275 5.12862 14.8052 0.0 -14.289944 0.0 22.8042 0.478737 12.2609 0.0 4.96258 0.0 13.0678 12.802629 -22.2077 0.0 -17.00422 0.0 
  -3.4734698486328126 4.711520080566406 10.158699951171876 -106.277 81.3045 98.444 -3.65215 -11.583 3.34229 20.9045 24.0813 -5.71534 -29.6535 79.0805 47.5017 6.64903 -56.7128 -16.6943 -105.8618 -6.20512 -18.1343 9.32408 5.50521 -26.4834 0.0 20.8374 0.0 54.3335 17.3582 30.7855 0.0 0.0 0.0 0.0 0.0 0.0 113.6374 -1.63019 -4.22422 31.4947 2.52734 -12.1832 0.0 28.2892 0.0 -4.25528 -0.542463 -2.7368 0.0 0.0 0.0 0.0 0.0 0.0 -3.24045 -11.612 22.6056 0.0 15.9703 0.0 8.40946 5.1677704 14.6524 0.0 -15.014818 0.0 22.7924 0.570803 12.416 0.0 4.63733 0.0 13.2865 12.84642 -22.432 0.0 -16.97981 0.0 
  -3.4575 4.713840026855468 10.160700073242188 -106.413 81.179 98.6874 -3.41427 -11.6377 3.24132 21.1133 23.9799 -5.83395 -28.1845 79.1172 45.9167 6.73141 -56.6196 -16.4866 -105.8753 -6.11209 -18.2475 9.07501 5.35237 -26.1517 0.0 20.9875 0.0 54.3265 17.4092 30.7665 0.0 0.0 0.0 0.0 0.0 0.0 113.5631 -1.57298 -4.23524 31.0173 2.94643 -12.2256 0.0 28.5523 0.0 -5.32987 0.376994 -2.13749 0.0 0.0 0.0 0.0 0.0 0.0 -3.2689 -11.5171 22.6663 0.0 15.6518 0.0 8.32523 5.16442 14.4716 0.0 -15.477459 0.0 22.7729 0.659107 12.6847 0.0 4.29473 0.0 13.547 12.87745 -22.6804 0.0 -17.17467 0.0 
